<svg xmlns="http://www.w3.org/2000/svg" width="1536" height="754" style="cursor: move;"><g transform="translate(-5.426245283856076,5.999314055577827) scale(1.1309224470658588)"><path class="link" marker-end="" d="M576,287, 788,347" style="stroke-width: 0.55; stroke-opacity: 0.92; stroke: rgb(80, 80, 80); opacity: 1;"></path><path class="link" marker-end="" d="M576,287, 788,387" style="stroke-width: 0.55; stroke-opacity: 0.92; stroke: rgb(80, 80, 80); opacity: 1;"></path><path class="link" marker-end="" d="M576,287, 788,427" style="stroke-width: 0.55; stroke-opacity: 0.92; stroke: rgb(80, 80, 80); opacity: 1;"></path><path class="link" marker-end="" d="M576,327, 788,347" style="stroke-width: 0.55; stroke-opacity: 0.92; stroke: rgb(80, 80, 80); opacity: 1;"></path><path class="link" marker-end="" d="M576,327, 788,387" style="stroke-width: 0.55; stroke-opacity: 0.92; stroke: rgb(80, 80, 80); opacity: 1;"></path><path class="link" marker-end="" d="M576,327, 788,427" style="stroke-width: 0.55; stroke-opacity: 0.92; stroke: rgb(80, 80, 80); opacity: 1;"></path><path class="link" marker-end="" d="M576,367, 788,347" style="stroke-width: 0.55; stroke-opacity: 0.92; stroke: rgb(80, 80, 80); opacity: 1;"></path><path class="link" marker-end="" d="M576,367, 788,387" style="stroke-width: 0.55; stroke-opacity: 0.92; stroke: rgb(80, 80, 80); opacity: 1;"></path><path class="link" marker-end="" d="M576,367, 788,427" style="stroke-width: 0.55; stroke-opacity: 0.92; stroke: rgb(80, 80, 80); opacity: 1;"></path><path class="link" marker-end="" d="M576,407, 788,347" style="stroke-width: 0.55; stroke-opacity: 0.92; stroke: rgb(80, 80, 80); opacity: 1;"></path><path class="link" marker-end="" d="M576,407, 788,387" style="stroke-width: 0.55; stroke-opacity: 0.92; stroke: rgb(80, 80, 80); opacity: 1;"></path><path class="link" marker-end="" d="M576,407, 788,427" style="stroke-width: 0.55; stroke-opacity: 0.92; stroke: rgb(80, 80, 80); opacity: 1;"></path><path class="link" marker-end="" d="M788,307, 1000,367" style="stroke-width: 0.55; stroke-opacity: 0.92; stroke: rgb(80, 80, 80); opacity: 1;"></path><path class="link" marker-end="" d="M788,347, 1000,367" style="stroke-width: 0.55; stroke-opacity: 0.92; stroke: rgb(80, 80, 80); opacity: 1;"></path><path class="link" marker-end="" d="M788,387, 1000,367" style="stroke-width: 0.55; stroke-opacity: 0.92; stroke: rgb(80, 80, 80); opacity: 1;"></path><path class="link" marker-end="" d="M788,427, 1000,367" style="stroke-width: 0.55; stroke-opacity: 0.92; stroke: rgb(80, 80, 80); opacity: 1;"></path><path class="link" marker-end="" d="M576,447, 788,347" style="stroke-width: 0.55; stroke-opacity: 0.92; stroke: rgb(80, 80, 80);"></path><path class="link" marker-end="" d="M576,447, 788,387" style="stroke-width: 0.55; stroke-opacity: 0.92; stroke: rgb(80, 80, 80);"></path><path class="link" marker-end="" d="M576,447, 788,427" style="stroke-width: 0.55; stroke-opacity: 0.92; stroke: rgb(80, 80, 80);"></path><path class="link" marker-end="" d="M576,287, 788,307" style="stroke-width: 0.55; stroke-opacity: 0.92; stroke: rgb(80, 80, 80);"></path><path class="link" marker-end="" d="M576,327, 788,307" style="stroke-width: 0.55; stroke-opacity: 0.92; stroke: rgb(80, 80, 80);"></path><path class="link" marker-end="" d="M576,367, 788,307" style="stroke-width: 0.55; stroke-opacity: 0.92; stroke: rgb(80, 80, 80);"></path><path class="link" marker-end="" d="M576,407, 788,307" style="stroke-width: 0.55; stroke-opacity: 0.92; stroke: rgb(80, 80, 80);"></path><path class="link" marker-end="" d="M576,447, 788,307" style="stroke-width: 0.55; stroke-opacity: 0.92; stroke: rgb(80, 80, 80);"></path><circle r="12.5" class="node" id="0_0" cx="576" cy="287" style="fill: rgb(255, 255, 255); stroke: rgb(51, 51, 51); opacity: 1;"></circle><circle r="12.5" class="node" id="0_1" cx="576" cy="327" style="fill: rgb(255, 255, 255); stroke: rgb(51, 51, 51); opacity: 1;"></circle><circle r="12.5" class="node" id="0_2" cx="576" cy="367" style="fill: rgb(255, 255, 255); stroke: rgb(51, 51, 51); opacity: 1;"></circle><circle r="12.5" class="node" id="0_3" cx="576" cy="407" style="fill: rgb(255, 255, 255); stroke: rgb(51, 51, 51); opacity: 1;"></circle><circle r="12.5" class="node" id="0_4" cx="576" cy="447" style="fill: rgb(255, 255, 255); stroke: rgb(51, 51, 51);"></circle><circle r="12.5" class="node" id="1_0" cx="788" cy="307" style="fill: rgb(255, 255, 255); stroke: rgb(51, 51, 51); opacity: 1;"></circle><circle r="12.5" class="node" id="1_1" cx="788" cy="347" style="fill: rgb(255, 255, 255); stroke: rgb(51, 51, 51); opacity: 1;"></circle><circle r="12.5" class="node" id="1_2" cx="788" cy="387" style="fill: rgb(255, 255, 255); stroke: rgb(51, 51, 51); opacity: 1;"></circle><circle r="12.5" class="node" id="1_3" cx="788" cy="427" style="fill: rgb(255, 255, 255); stroke: rgb(51, 51, 51); opacity: 1;"></circle><circle r="12.5" class="node" id="2_0" cx="1000" cy="367" style="fill: rgb(255, 255, 255); stroke: rgb(51, 51, 51); opacity: 1;"></circle><text class="text" dy=".35em" x="541" y="487" style="font-size: 12px;">Input Layer ∈ ℝ⁵</text><text class="text" dy=".35em" x="753" y="487" style="font-size: 12px;">Hidden Layer ∈ ℝ⁴</text><text class="text" dy=".35em" x="965" y="487" style="font-size: 12px;">Output Layer ∈ ℝ¹</text></g><defs><marker id="arrow" viewBox="0 -5 10 10" markerWidth="7" markerHeight="7" orient="auto" refX="47"><path d="M0,-5L10,0L0,5" style="stroke: rgb(80, 80, 80); fill: none;"></path></marker></defs></svg>